<?xml version="1.0" encoding="utf-8"?>
<!-- Generator: Adobe Illustrator 16.0.0, SVG Export Plug-In . SVG Version: 6.00 Build 0)  -->
<!DOCTYPE svg PUBLIC "-//W3C//DTD SVG 1.1//EN" "http://www.w3.org/Graphics/SVG/1.1/DTD/svg11.dtd">
<svg version="1.1" id="Layer_1" xmlns="http://www.w3.org/2000/svg" xmlns:xlink="http://www.w3.org/1999/xlink" x="0px" y="0px"
	 width="271.834px" height="46.391px" viewBox="0 0 271.834 46.391" enable-background="new 0 0 271.834 46.391"
	 xml:space="preserve">
<g>
	<path fill="#FFFFFF" d="M62.625,18.306v1.921h0.086c0.172-0.268,0.396-0.539,0.674-0.815c0.276-0.277,0.616-0.525,1.017-0.745
		c0.402-0.218,0.855-0.4,1.361-0.543c0.507-0.145,1.074-0.214,1.706-0.214c0.975,0,1.871,0.187,2.694,0.559
		c0.82,0.372,1.527,0.885,2.119,1.533c0.593,0.648,1.052,1.414,1.376,2.293c0.324,0.878,0.487,1.822,0.487,2.835
		c0,1.014-0.158,1.964-0.474,2.851c-0.315,0.889-0.765,1.661-1.346,2.32c-0.583,0.657-1.291,1.185-2.121,1.575
		c-0.83,0.39-1.772,0.586-2.821,0.586c-0.975,0-1.868-0.201-2.678-0.602c-0.812-0.399-1.438-0.944-1.876-1.632h-0.057v8.709h-3.438
		v-20.63L62.625,18.306L62.625,18.306z M70.646,25.125c0-0.535-0.082-1.065-0.243-1.589c-0.163-0.525-0.407-0.997-0.731-1.418
		c-0.325-0.421-0.736-0.761-1.232-1.018c-0.497-0.258-1.08-0.387-1.747-0.387c-0.63,0-1.194,0.135-1.689,0.402
		c-0.499,0.267-0.922,0.611-1.275,1.03s-0.622,0.897-0.802,1.433c-0.182,0.535-0.271,1.069-0.271,1.604
		c0,0.534,0.091,1.065,0.271,1.591c0.181,0.526,0.449,0.998,0.802,1.417c0.354,0.419,0.777,0.761,1.275,1.018
		c0.496,0.26,1.06,0.386,1.689,0.386c0.667,0,1.25-0.132,1.747-0.397c0.499-0.269,0.907-0.611,1.232-1.033
		c0.324-0.419,0.568-0.898,0.731-1.434C70.566,26.194,70.646,25.659,70.646,25.125z"/>
	<path fill="#FFFFFF" d="M76.662,25.125c0-1.088,0.197-2.076,0.587-2.964c0.391-0.89,0.922-1.647,1.591-2.278
		c0.667-0.63,1.46-1.118,2.378-1.461c0.915-0.343,1.891-0.514,2.92-0.514c1.031,0,2.005,0.172,2.923,0.514
		c0.917,0.343,1.708,0.831,2.378,1.461c0.668,0.63,1.198,1.389,1.59,2.278c0.391,0.888,0.587,1.876,0.587,2.964
		c0,1.089-0.195,2.083-0.587,2.979c-0.393,0.899-0.922,1.666-1.59,2.309c-0.67,0.638-1.46,1.14-2.378,1.501
		c-0.917,0.362-1.892,0.545-2.923,0.545c-1.029,0-2.005-0.183-2.92-0.545c-0.918-0.361-1.71-0.863-2.378-1.501
		c-0.669-0.643-1.2-1.408-1.591-2.309C76.858,27.208,76.662,26.214,76.662,25.125z M80.156,25.125c0,0.534,0.082,1.068,0.244,1.604
		c0.163,0.534,0.406,1.015,0.73,1.434c0.325,0.421,0.736,0.765,1.233,1.032c0.496,0.27,1.087,0.398,1.775,0.398
		s1.28-0.132,1.776-0.398c0.497-0.268,0.907-0.61,1.232-1.032c0.326-0.419,0.567-0.898,0.73-1.434
		c0.163-0.531,0.244-1.069,0.244-1.604c0-0.535-0.081-1.065-0.244-1.589c-0.163-0.525-0.404-0.997-0.73-1.418
		c-0.325-0.421-0.735-0.761-1.232-1.018c-0.496-0.258-1.089-0.387-1.776-0.387s-1.278,0.129-1.775,0.387
		c-0.497,0.259-0.908,0.599-1.233,1.018c-0.325,0.419-0.568,0.892-0.73,1.418C80.239,24.059,80.156,24.59,80.156,25.125z"/>
	<path fill="#FFFFFF" d="M92.991,18.306h3.723l2.864,9.855h0.059l2.949-9.855h3.667l2.979,9.855h0.059l2.923-9.855h3.581
		l-4.754,13.75h-3.496l-3.124-9.625h-0.058l-3.093,9.625h-3.495L92.991,18.306z"/>
	<path fill="#FFFFFF" d="M131.089,25.353c0,0.154,0,0.305,0,0.459c0,0.153-0.01,0.308-0.029,0.459h-10.456
		c0.037,0.496,0.168,0.95,0.387,1.36c0.219,0.413,0.512,0.765,0.875,1.06c0.361,0.297,0.771,0.531,1.23,0.701
		c0.459,0.172,0.934,0.259,1.432,0.259c0.861,0,1.584-0.158,2.176-0.474c0.594-0.314,1.08-0.748,1.462-1.303l2.291,1.834
		c-1.355,1.834-3.321,2.749-5.899,2.749c-1.069,0-2.053-0.166-2.951-0.499c-0.897-0.336-1.676-0.809-2.334-1.419
		c-0.66-0.613-1.174-1.362-1.549-2.249c-0.372-0.89-0.557-1.896-0.557-3.021c0-1.108,0.185-2.117,0.557-3.022
		c0.375-0.906,0.885-1.681,1.535-2.32c0.648-0.641,1.418-1.135,2.305-1.489c0.889-0.354,1.85-0.529,2.879-0.529
		c0.955,0,1.839,0.156,2.65,0.473c0.812,0.312,1.513,0.781,2.105,1.403c0.592,0.623,1.056,1.395,1.39,2.319
		C130.922,23.031,131.089,24.113,131.089,25.353z M127.65,23.806c0-0.438-0.061-0.857-0.186-1.259
		c-0.123-0.401-0.32-0.754-0.588-1.062c-0.267-0.305-0.605-0.547-1.017-0.729c-0.411-0.18-0.894-0.272-1.446-0.272
		c-1.031,0-1.905,0.311-2.621,0.932c-0.715,0.619-1.112,1.418-1.188,2.39H127.65z"/>
	<path fill="#FFFFFF" d="M134.411,18.306h3.294v2.293h0.058c0.381-0.801,0.916-1.45,1.604-1.948
		c0.686-0.498,1.488-0.743,2.404-0.743c0.134,0,0.277,0.004,0.431,0.013c0.151,0.01,0.286,0.032,0.401,0.072v3.149
		c-0.229-0.057-0.426-0.095-0.59-0.115c-0.162-0.018-0.32-0.027-0.472-0.027c-0.783,0-1.414,0.143-1.892,0.429
		c-0.478,0.288-0.851,0.631-1.118,1.032c-0.269,0.4-0.448,0.812-0.543,1.231c-0.097,0.419-0.146,0.753-0.146,1.002v7.361h-3.438
		v-13.75L134.411,18.306L134.411,18.306z"/>
</g>
<g>
	<path fill="#FFFFFF" d="M148.034,20.986v-2.75h2.406v-3.981h3.379v3.979h3.438v2.751h-3.438v6.386c0,0.613,0.108,1.119,0.328,1.521
		c0.221,0.399,0.711,0.601,1.476,0.601c0.229,0,0.478-0.023,0.745-0.069c0.267-0.049,0.505-0.119,0.716-0.216l0.113,2.692
		c-0.304,0.114-0.666,0.205-1.087,0.272c-0.422,0.066-0.821,0.101-1.203,0.101c-0.917,0-1.66-0.129-2.234-0.387
		c-0.572-0.26-1.023-0.612-1.359-1.059c-0.336-0.448-0.564-0.967-0.69-1.549c-0.124-0.581-0.183-1.208-0.183-1.873v-6.417h-2.405
		L148.034,20.986L148.034,20.986z"/>
	<path fill="#FFFFFF" d="M159.749,18.236h3.294v2.292h0.06c0.381-0.803,0.916-1.451,1.604-1.949
		c0.688-0.496,1.489-0.744,2.405-0.744c0.132,0,0.275,0.004,0.43,0.016c0.15,0.008,0.284,0.031,0.398,0.07v3.149
		c-0.229-0.057-0.422-0.096-0.586-0.113c-0.164-0.019-0.32-0.028-0.475-0.028c-0.781,0-1.411,0.142-1.89,0.43
		c-0.479,0.286-0.851,0.631-1.118,1.031c-0.268,0.401-0.45,0.812-0.543,1.232c-0.096,0.419-0.145,0.754-0.145,1.003v7.36h-3.438
		v-13.75L159.749,18.236L159.749,18.236z"/>
	<path fill="#FFFFFF" d="M178.342,30.238h-0.085c-0.346,0.611-0.9,1.111-1.66,1.506c-0.767,0.39-1.636,0.587-2.609,0.587
		c-0.557,0-1.129-0.072-1.732-0.215c-0.604-0.144-1.156-0.383-1.661-0.718c-0.505-0.333-0.928-0.771-1.261-1.315
		c-0.335-0.545-0.503-1.217-0.503-2.021c0-1.029,0.291-1.853,0.873-2.464c0.582-0.609,1.332-1.077,2.249-1.403
		c0.916-0.324,1.933-0.536,3.05-0.644c1.12-0.106,2.211-0.158,3.282-0.158V23.05c0-0.859-0.312-1.495-0.932-1.906
		c-0.625-0.411-1.362-0.614-2.222-0.614c-0.725,0-1.422,0.152-2.09,0.458c-0.67,0.305-1.224,0.677-1.659,1.115l-1.777-2.092
		c0.783-0.725,1.686-1.27,2.705-1.63c1.021-0.362,2.058-0.546,3.108-0.546c1.22,0,2.229,0.172,3.022,0.517
		c0.791,0.346,1.418,0.793,1.873,1.348c0.459,0.554,0.778,1.175,0.961,1.862c0.183,0.687,0.273,1.375,0.273,2.062v8.365h-3.21
		v-1.752H178.342z M178.286,25.711h-0.773c-0.557,0-1.136,0.026-1.748,0.072c-0.611,0.047-1.174,0.151-1.689,0.313
		c-0.516,0.163-0.945,0.392-1.289,0.688c-0.342,0.296-0.516,0.7-0.516,1.217c0,0.324,0.072,0.599,0.215,0.816
		c0.146,0.219,0.33,0.396,0.559,0.53c0.23,0.133,0.488,0.229,0.775,0.287c0.285,0.058,0.568,0.086,0.857,0.086
		c1.184,0,2.081-0.315,2.691-0.946c0.611-0.631,0.918-1.488,0.918-2.576V25.711z"/>
	<path fill="#FFFFFF" d="M185.129,13.566c0-0.553,0.207-1.035,0.618-1.446c0.41-0.411,0.929-0.617,1.562-0.617
		c0.629,0,1.159,0.196,1.588,0.586c0.429,0.393,0.646,0.884,0.646,1.476c0,0.593-0.217,1.085-0.646,1.477
		c-0.429,0.393-0.959,0.587-1.588,0.587c-0.634,0-1.151-0.205-1.562-0.616C185.336,14.602,185.129,14.12,185.129,13.566z
		 M185.618,18.236h3.438v13.75h-3.438V18.236z"/>
	<path fill="#FFFFFF" d="M193.24,18.236h3.263v2.205h0.061c0.306-0.686,0.836-1.291,1.588-1.817
		c0.754-0.525,1.646-0.789,2.679-0.789c0.897,0,1.666,0.157,2.305,0.472c0.642,0.316,1.165,0.732,1.576,1.246
		c0.411,0.516,0.709,1.108,0.903,1.775c0.188,0.671,0.285,1.356,0.285,2.063v8.594h-3.438v-7.618c0-0.401-0.029-0.82-0.086-1.262
		c-0.059-0.438-0.184-0.834-0.375-1.188s-0.453-0.645-0.786-0.872c-0.333-0.23-0.782-0.345-1.334-0.345
		c-0.555,0-1.032,0.11-1.433,0.327c-0.399,0.22-0.729,0.503-0.99,0.848c-0.256,0.342-0.451,0.739-0.585,1.188
		c-0.133,0.448-0.2,0.902-0.2,1.36v7.562h-3.436V18.236H193.24z"/>
	<path fill="#FFFFFF" d="M209.479,13.566c0-0.553,0.205-1.035,0.617-1.446c0.409-0.411,0.932-0.617,1.562-0.617
		c0.631,0,1.161,0.196,1.589,0.586c0.43,0.393,0.645,0.884,0.645,1.476c0,0.593-0.215,1.085-0.645,1.477
		c-0.428,0.393-0.96,0.587-1.589,0.587c-0.63,0-1.151-0.205-1.562-0.616C209.683,14.602,209.479,14.12,209.479,13.566z
		 M209.965,18.236h3.438v13.75h-3.438V18.236z"/>
	<path fill="#FFFFFF" d="M217.586,18.236h3.267v2.205h0.057c0.306-0.686,0.836-1.291,1.589-1.817
		c0.756-0.525,1.649-0.789,2.681-0.789c0.898,0,1.664,0.157,2.305,0.472c0.642,0.316,1.166,0.732,1.576,1.246
		c0.408,0.516,0.713,1.108,0.901,1.775c0.192,0.671,0.287,1.356,0.287,2.063v8.594h-3.438v-7.618c0-0.401-0.029-0.82-0.086-1.262
		c-0.057-0.438-0.181-0.834-0.371-1.188s-0.453-0.645-0.789-0.872c-0.334-0.23-0.777-0.345-1.336-0.345
		c-0.552,0-1.029,0.11-1.428,0.327c-0.4,0.22-0.734,0.503-0.988,0.848c-0.26,0.342-0.455,0.739-0.588,1.188
		c-0.137,0.448-0.201,0.902-0.201,1.36v7.562h-3.438V18.236H217.586z"/>
	<path fill="#FFFFFF" d="M248.235,18.236v12.519c0,1.241-0.151,2.364-0.457,3.364c-0.307,1.004-0.777,1.854-1.418,2.551
		c-0.639,0.696-1.446,1.236-2.42,1.618c-0.978,0.383-2.129,0.572-3.469,0.572c-0.555,0-1.141-0.05-1.761-0.145
		c-0.62-0.096-1.231-0.238-1.832-0.429c-0.604-0.191-1.18-0.432-1.735-0.718c-0.556-0.284-1.05-0.609-1.487-0.976l1.976-2.663
		c0.67,0.63,1.424,1.114,2.266,1.446c0.84,0.334,1.688,0.503,2.549,0.503c0.82,0,1.513-0.12,2.076-0.361
		c0.563-0.237,1.014-0.566,1.347-0.991c0.335-0.42,0.571-0.919,0.717-1.493c0.146-0.576,0.213-1.207,0.213-1.898V30.13h-0.055
		c-0.499,0.676-1.132,1.193-1.906,1.548c-0.772,0.356-1.636,0.534-2.593,0.534c-1.031,0-1.965-0.189-2.811-0.573
		c-0.839-0.381-1.549-0.896-2.133-1.546c-0.582-0.649-1.037-1.406-1.359-2.277c-0.323-0.869-0.486-1.791-0.486-2.765
		c0-0.994,0.156-1.929,0.472-2.808c0.318-0.877,0.767-1.644,1.347-2.291c0.584-0.65,1.293-1.166,2.119-1.547
		c0.83-0.382,1.764-0.572,2.795-0.572c0.973,0,1.879,0.201,2.72,0.603c0.841,0.398,1.511,1.021,2.005,1.861h0.062v-2.061
		L248.235,18.236L248.235,18.236z M240.901,20.641c-0.629,0-1.19,0.115-1.678,0.345c-0.486,0.227-0.896,0.536-1.229,0.927
		c-0.334,0.392-0.591,0.853-0.774,1.386c-0.18,0.533-0.271,1.103-0.271,1.713c0,0.551,0.091,1.083,0.271,1.6
		c0.184,0.513,0.44,0.975,0.774,1.384c0.334,0.41,0.743,0.736,1.229,0.984s1.038,0.371,1.646,0.371c0.631,0,1.202-0.119,1.707-0.355
		c0.503-0.239,0.934-0.558,1.285-0.957c0.355-0.4,0.625-0.861,0.816-1.387c0.191-0.522,0.29-1.069,0.29-1.64
		c0-0.591-0.099-1.153-0.29-1.687c-0.191-0.534-0.461-0.999-0.816-1.399c-0.353-0.398-0.777-0.713-1.273-0.939
		C242.097,20.757,241.533,20.641,240.901,20.641z"/>
</g>
<path fill="#FFFFFF" d="M258.099,26.939h-1.684v4.558h-0.643v-4.558h-1.686v-0.538h4.012V26.939L258.099,26.939z"/>
<path fill="#FFFFFF" d="M263.796,28.076l0.086-0.765h-0.044l-0.321,0.697l-1.552,2.301h-0.213l-1.642-2.307l-0.31-0.691h-0.041
	l0.119,0.757v3.428h-0.667v-5.096h0.529l1.863,2.606l0.281,0.568h0.019l0.263-0.583l1.783-2.592h0.552v5.095h-0.707L263.796,28.076
	L263.796,28.076z"/>
<g>
	<path fill="#FF1D25" d="M18.874,32.829v-8.072c0-0.415-0.03-0.815-0.089-1.202c-0.06-0.386-0.168-0.716-0.326-0.994
		c-0.159-0.275-0.371-0.5-0.638-0.667c-0.267-0.169-0.619-0.253-1.054-0.253c-0.415,0-0.776,0.089-1.083,0.269
		c-0.307,0.178-0.563,0.416-0.771,0.711c-0.208,0.297-0.361,0.638-0.46,1.023c-0.099,0.387-0.148,0.788-0.148,1.202v7.983H9.437
		v-8.429c0-0.852-0.168-1.523-0.504-2.018C8.595,21.888,8.062,21.64,7.33,21.64c-0.771,0-1.37,0.309-1.795,0.92
		c-0.425,0.612-0.638,1.365-0.638,2.255v8.014H0V18.05h4.718v2.048h0.06c0.178-0.315,0.4-0.623,0.667-0.919
		c0.267-0.297,0.588-0.56,0.964-0.788c0.376-0.226,0.796-0.41,1.261-0.548s0.974-0.208,1.528-0.208c1.068,0,1.974,0.217,2.715,0.652
		c0.742,0.435,1.321,1.059,1.736,1.87c0.495-0.771,1.128-1.385,1.899-1.84c0.772-0.455,1.711-0.683,2.819-0.683
		c1.009,0,1.855,0.183,2.538,0.549c0.682,0.367,1.23,0.841,1.646,1.425c0.415,0.583,0.717,1.237,0.905,1.958
		c0.188,0.723,0.282,1.43,0.282,2.122v9.141H18.874z"/>
	<path fill="#FF1D25" d="M32.703,13.332c0,0.376-0.074,0.727-0.223,1.054c-0.148,0.326-0.346,0.608-0.593,0.845
		c-0.248,0.237-0.545,0.427-0.89,0.564c-0.347,0.139-0.708,0.208-1.083,0.208c-0.792,0-1.454-0.261-1.988-0.786
		c-0.534-0.525-0.801-1.152-0.801-1.885c0-0.356,0.069-0.698,0.208-1.024c0.138-0.327,0.336-0.608,0.593-0.846
		c0.257-0.237,0.554-0.43,0.89-0.579c0.336-0.148,0.702-0.222,1.098-0.222c0.376,0,0.737,0.068,1.083,0.208
		c0.345,0.139,0.643,0.327,0.89,0.562c0.247,0.237,0.445,0.521,0.593,0.845C32.628,12.604,32.703,12.957,32.703,13.332z
		 M27.479,32.829V18.05h4.867v14.779H27.479z"/>
	<path fill="#FF1D25" d="M46.294,32.829l-3.176-4.541l-3.264,4.541h-5.638l5.906-7.745L34.78,18.05h5.668l2.76,3.947l2.79-3.947
		h5.49l-5.312,7.034l5.846,7.745H46.294z"/>
</g>
</svg>
